#N canvas 194 336 707 385 10;
#X obj 47 192 print;
#X msg 376 41 1;
#X msg 411 41 2;
#X obj 376 113 print;
#X msg 376 77 set 15 \$1;
#X obj 87 34 metro 10;
#X obj 85 10 tgl 15 0 empty empty empty 17 7 0 10 -262144 -1 -1 1 1
;
#X obj 85 273 tgl 15 0 empty empty empty 17 7 0 10 -262144 -1 -1 1
1;
#X obj 120 273 tgl 15 0 empty empty empty 17 7 0 10 -262144 -1 -1 2
1;
#X obj 161 273 tgl 15 0 empty empty empty 17 7 0 10 -262144 -1 -1 4
1;
#X obj 85 237 & 1;
#X obj 197 273 tgl 15 0 empty empty empty 17 7 0 10 -262144 -1 -1 8
1;
#X obj 233 273 tgl 15 0 empty empty empty 17 7 0 10 -262144 -1 -1 16
1;
#X obj 120 237 & 2;
#X obj 161 237 & 4;
#X obj 197 237 & 8;
#X obj 233 237 & 16;
#X obj 270 273 tgl 15 0 empty empty empty 17 7 0 10 -262144 -1 -1 32
1;
#X obj 305 273 tgl 15 0 empty empty empty 17 7 0 10 -262144 -1 -1 64
1;
#X obj 346 273 tgl 15 0 empty empty empty 17 7 0 10 -262144 -1 -1 128
1;
#X obj 270 237 & 32;
#X obj 305 237 & 64;
#X obj 346 237 & 128;
#X obj 85 122 i2c 1 32;
#X obj 346 181 route 19 18;
#X msg 85 91 get 18;
#X msg 137 91 get 19;
#X obj 87 60 t b b;
#X obj 396 273 tgl 15 0 empty empty empty 17 7 0 10 -262144 -1 -1 1
1;
#X obj 431 273 tgl 15 0 empty empty empty 17 7 0 10 -262144 -1 -1 2
1;
#X obj 472 273 tgl 15 0 empty empty empty 17 7 0 10 -262144 -1 -1 4
1;
#X obj 396 237 & 1;
#X obj 508 273 tgl 15 0 empty empty empty 17 7 0 10 -262144 -1 -1 8
1;
#X obj 544 273 tgl 15 0 empty empty empty 17 7 0 10 -262144 -1 -1 16
1;
#X obj 431 237 & 2;
#X obj 472 237 & 4;
#X obj 508 237 & 8;
#X obj 544 237 & 16;
#X obj 581 273 tgl 15 0 empty empty empty 17 7 0 10 -262144 -1 -1 32
1;
#X obj 616 273 tgl 15 0 empty empty empty 17 7 0 10 -262144 -1 -1 64
1;
#X obj 657 273 tgl 15 0 empty empty empty 17 7 0 10 -262144 -1 -1 128
1;
#X obj 581 237 & 32;
#X obj 616 237 & 64;
#X obj 657 237 & 128;
#X connect 1 0 4 0;
#X connect 2 0 4 0;
#X connect 4 0 3 0;
#X connect 5 0 27 0;
#X connect 6 0 5 0;
#X connect 10 0 7 0;
#X connect 13 0 8 0;
#X connect 14 0 9 0;
#X connect 15 0 11 0;
#X connect 16 0 12 0;
#X connect 20 0 17 0;
#X connect 21 0 18 0;
#X connect 22 0 19 0;
#X connect 23 0 24 0;
#X connect 24 0 13 0;
#X connect 24 0 14 0;
#X connect 24 0 15 0;
#X connect 24 0 16 0;
#X connect 24 0 20 0;
#X connect 24 0 21 0;
#X connect 24 0 22 0;
#X connect 24 0 10 0;
#X connect 24 1 31 0;
#X connect 24 1 34 0;
#X connect 24 1 35 0;
#X connect 24 1 36 0;
#X connect 24 1 37 0;
#X connect 24 1 41 0;
#X connect 24 1 42 0;
#X connect 24 1 43 0;
#X connect 25 0 23 0;
#X connect 26 0 23 0;
#X connect 27 0 25 0;
#X connect 27 1 26 0;
#X connect 31 0 28 0;
#X connect 34 0 29 0;
#X connect 35 0 30 0;
#X connect 36 0 32 0;
#X connect 37 0 33 0;
#X connect 41 0 38 0;
#X connect 42 0 39 0;
#X connect 43 0 40 0;
