#N canvas 1209 44 707 385 10;
#X obj 186 -205 print;
#X obj 141 -326 loadbang;
#X msg 244 -312 1;
#X msg 284 -313 2;
#X obj 325 -203 print;
#X msg 245 -281 set 15 \$1;
#X msg 141 -299 get 13;
#X obj 186 -242 i2c 2 80;
#X connect 1 0 6 0;
#X connect 2 0 5 0;
#X connect 3 0 5 0;
#X connect 5 0 4 0;
#X connect 5 0 7 0;
#X connect 6 0 7 0;
#X connect 7 0 0 0;
